<svg id="图层_1" data-name="图层 1" xmlns="http://www.w3.org/2000/svg" xmlns:xlink="http://www.w3.org/1999/xlink" viewBox="0 0 15.84 14.78"><defs><style>.cls-1{fill:url(#未命名的渐变_93);}</style><linearGradient id="未命名的渐变_93" x1="4.13" y1="1.29" x2="11.87" y2="14.71" gradientUnits="userSpaceOnUse"><stop offset="0" stop-color="#a5f4d3"/><stop offset="0.12" stop-color="#7ce395"/><stop offset="0.36" stop-color="#59c896"/><stop offset="0.54" stop-color="#55c596"/><stop offset="0.7" stop-color="#3eaa9b"/><stop offset="0.85" stop-color="#349d9e"/><stop offset="1" stop-color="#215273"/></linearGradient></defs><path class="cls-1" d="M15.92,6.19A2.57,2.57,0,0,0,14.37,3.9a3.94,3.94,0,0,0-1.5-.3,4.12,4.12,0,0,0-2,1L7.61,7.69,4.15,10.84a2.16,2.16,0,0,1-1.77.5,1.88,1.88,0,0,1-.59-.28A1.47,1.47,0,0,1,1.2,10a1,1,0,0,1,0-.17,1.45,1.45,0,0,1,.63-1.26L2.6,8l-.24-.17-.71-.49a1.13,1.13,0,0,1-.39-.65,1.59,1.59,0,0,1-.07-.48V6.16A1.46,1.46,0,0,1,1.7,5,2,2,0,0,1,3,4.6,1.74,1.74,0,0,1,4,5H4a.12.12,0,0,1,0,0l.12.11,0,0,.25.24,2.12,2,.76-.69-2.13-2L5,4.48s0,0,0,0l-.12-.11s0,0,0,0h0a1.41,1.41,0,0,1-.42-1A1.71,1.71,0,0,1,4.8,2.12,1.68,1.68,0,0,1,6,1.65h.06a1.51,1.51,0,0,1,.52.06,1.26,1.26,0,0,1,.7.37l.52.66L8,3l.58-.74a1.66,1.66,0,0,1,1.35-.59h.18a1.67,1.67,0,0,1,1.15.56,1.91,1.91,0,0,1,.3.54l.81-.69A2.8,2.8,0,0,0,8,1.37,2.81,2.81,0,0,0,6.06.61,2.72,2.72,0,0,0,3.3,3.29a1.64,1.64,0,0,0,0,.38,2.56,2.56,0,0,0-.39,0A2.74,2.74,0,0,0,.08,6.22,2.42,2.42,0,0,0,.89,8a2.46,2.46,0,0,0-.81,1.8A2.55,2.55,0,0,0,1.64,12.1a3.86,3.86,0,0,0,1.49.3,4.12,4.12,0,0,0,2-1L8.34,8.37l3.51-3.21a2.19,2.19,0,0,1,1.77-.5,1.88,1.88,0,0,1,.59.28A1.47,1.47,0,0,1,14.8,6a1,1,0,0,1,0,.17,1.45,1.45,0,0,1-.63,1.26L13.4,8l.24.17.71.49a1.13,1.13,0,0,1,.39.65,1.59,1.59,0,0,1,.07.48v.06A1.46,1.46,0,0,1,14.3,11a2,2,0,0,1-1.25.44A1.74,1.74,0,0,1,12,11h0a.12.12,0,0,1-.05-.05l-.12-.11,0,0-.25-.24-2.12-2-.76.69,2.13,2,.25.23,0,0,.12.11.05.05h0a1.41,1.41,0,0,1,.42,1,1.71,1.71,0,0,1-.46,1.17,1.68,1.68,0,0,1-1.2.47H9.94a1.51,1.51,0,0,1-.52-.06,1.26,1.26,0,0,1-.7-.37l-.52-.66L8,13l-.58.74a1.66,1.66,0,0,1-1.35.59H5.9a1.67,1.67,0,0,1-1.15-.56,1.91,1.91,0,0,1-.3-.54l-.81.69A2.8,2.8,0,0,0,8,14.63a2.81,2.81,0,0,0,1.93.76,2.72,2.72,0,0,0,2.76-2.68,1.64,1.64,0,0,0,0-.38l.39,0a2.74,2.74,0,0,0,2.87-2.58A2.42,2.42,0,0,0,15.11,8,2.46,2.46,0,0,0,15.92,6.19Z" transform="translate(-0.08 -0.61)"/></svg>